<?xml version="1.0" encoding="utf-8"?>
<svg xmlns:svg="http://www.w3.org/2000/svg" xmlns="http://www.w3.org/2000/svg" xmlns:inkscape="http://www.inkscape.org/namespaces/inkscape" version="1.0" x="0px" y="0px" width="141px" height="29px" viewBox="0 0 141 29">
    <g transform="translate(-4.5800651e-8,-38.174677)">
        <path d="M 9.689,45.955 C 8.91,45.255 7.896,44.914 6.89,44.609 5.88,44.31 4.882,44.089 4.158,43.777 3.425,43.458 3.02,43.095 3.02,42.484 c 0.012,-1.193 0.75,-1.834 1.878,-1.85 0.776,0.004 1.401,0.275 1.878,0.74 0.464,0.445 0.795,1.096 0.95,1.854 h 2.4 V 38.532 H 7.621 l 0.004,0.806 C 6.834,38.698 5.832,38.2 4.776,38.198 3.003,38.197 1.796,38.91 1.047,39.805 0.299,40.702 0.002,41.766 0,42.51 c -0.004,1.994 0.878,3.141 1.832,3.775 0.949,0.634 1.984,0.788 2.264,0.875 1.235,0.375 2.236,0.563 2.891,0.889 0.647,0.333 0.968,0.729 0.981,1.699 C 7.965,50.885 7.014,51.759 5.923,51.762 4.019,51.755 2.801,50.456 2.549,48.563 H 0.123 v 5.306 H 2.63 V 52.977 C 3.66,53.732 4.849,54.2 6.126,54.2 h 0.003 c 1.386,0 2.607,-0.478 3.472,-1.323 0.869,-0.847 1.385,-2.061 1.383,-3.504 0.003,-1.655 -0.512,-2.717 -1.295,-3.418" style="fill:#008335" />
        <path d="m 24.279,48.527 -0.05,0.1 c -0.812,1.627 -1.888,2.708 -4.027,2.715 -3.016,-0.003 -4.647,-2.349 -4.659,-5.145 0.013,-2.813 1.686,-5.139 4.659,-5.143 0.806,-0.002 1.629,0.234 2.29,0.69 0.669,0.44 1.186,1.065 1.377,1.864 l 0.034,0.139 h 2.465 l -0.002,-5.216 h -2.502 v 0.835 C 22.572,38.4 20.64,38.203 20.18,38.199 c -1.807,0 -3.716,0.628 -5.181,1.936 -1.466,1.308 -2.477,3.3 -2.476,5.982 0,2.281 0.83,4.305 2.208,5.754 1.375,1.449 3.298,2.327 5.469,2.327 0.01,0 0.019,0 0.028,0 3.259,0 5.923,-1.794 6.787,-5.445 0,0 0.02,-0.082 0.024,-0.224 -0.089,-0.002 -2.76,-0.002 -2.76,-0.002" style="fill:#008335" />
        <polygon points="125.794,49.02 123.264,49.02 123.264,51.468 118.842,51.468 118.842,47.063 122.949,47.063 122.949,44.52 118.842,44.52 118.842,40.928 123.264,40.928 123.264,42.663 123.441,42.663 123.441,42.674 125.794,42.674 125.794,38.532 114.254,38.532 114.254,40.928 115.829,40.928 115.829,51.468 114.254,51.468 114.254,53.866 125.794,53.866" style="fill:#008335" />
        <polygon points="102.428,40.93 104.085,40.93 104.085,51.468 102.428,51.468 102.428,53.866 112.786,53.866 112.786,49.063 110.256,49.063 110.256,51.468 107.102,51.468 107.102,40.928 108.703,40.93 108.703,38.532 102.428,38.532" style="fill:#008335" />
        <path d="m 132.748,40.928 h 1.232 c 0.689,-10e-4 1.485,0.002 2.08,0.221 0.592,0.226 0.977,0.588 0.986,1.441 -0.006,0.965 -0.333,1.438 -0.826,1.727 -0.5,0.289 -1.213,0.354 -1.934,0.354 h -1.54 l 0.002,-3.743 0,0 z m 6.818,10.54 v -3.192 c 0,-0.467 -0.031,-0.993 -0.303,-1.474 -0.227,-0.396 -0.761,-0.739 -1.375,-0.966 1.34,-0.682 2.178,-1.746 2.17,-3.389 v -0.053 c 0,-0.308 -0.021,-1.229 -0.69,-2.094 -1.228,-1.653 -3.044,-1.776 -4.166,-1.774 -0.2,0 -0.382,0.005 -0.529,0.005 h -6.51 v 2.396 h 1.573 v 10.54 h -1.573 v 2.398 h 6.044 V 53.68 51.466 h -1.458 v -4.403 h 1.417 c 0.532,0 1.159,0.039 1.625,0.235 0.466,0.205 0.76,0.507 0.77,1.136 v 5.432 H 141 v -2.398 l -1.434,0 0,0 z" style="fill:#008335" />
        <polygon points="32.945,40.928 34.329,40.928 34.329,38.532 28.352,38.532 28.352,40.928 29.929,40.928 29.929,51.468 28.352,51.468 28.352,53.866 34.334,53.866 34.334,51.468 32.945,51.468 32.945,47.063 37.85,47.063 37.85,51.468 36.454,51.468 36.454,53.866 42.439,53.866 42.439,51.468 40.869,51.468 40.869,40.928 42.439,40.928 42.439,38.532 36.454,38.532 36.454,40.928 37.85,40.928 37.85,44.52 32.945,44.52" style="fill:#008335" />
        <polygon points="94.568,51.468 93.012,51.468 93.012,47.063 97.447,47.063 97.447,44.52 93.012,44.52 93.012,40.928 97.596,40.928 97.596,42.663 100.123,42.663 100.123,38.532 88.421,38.532 88.421,40.93 89.993,40.93 89.993,51.468 88.421,51.468 88.421,53.866 94.568,53.866" style="fill:#008335" />
        <path d="m 49.874,46.518 1.573,-5.062 h 0.062 l 1.542,5.062 h -3.177 z m 7.619,4.95 -3.459,-10.54 h 1.525 v -2.396 h -7.981 v 2.396 h 1.543 l -3.553,10.54 h -1.083 v 2.398 h 5.316 v -2.398 h -1.418 l 0.849,-2.559 h 4.389 l 0.847,2.559 h -1.433 v 2.398 h 5.467 v -2.398 h -1.009 z" style="fill:#008335" />
        <polygon points="72.188,49.02 69.657,49.02 69.657,51.468 65.234,51.468 65.234,47.063 69.344,47.063 69.344,44.52 65.234,44.52 65.234,40.928 69.657,40.928 69.657,42.661 72.188,42.661 72.188,38.532 60.65,38.532 60.65,40.928 62.224,40.928 62.224,51.468 60.65,51.468 60.65,53.866 72.188,53.866" style="fill:#008335" />
        <polygon points="81.085,53.682 81.085,51.65 81.085,51.65 81.085,51.468 79.533,51.468 79.533,47.063 83.962,47.063 83.962,44.52 79.533,44.52 79.533,40.928 84.111,40.928 84.111,42.663 86.643,42.663 86.643,38.532 74.947,38.532 74.947,40.928 76.521,40.928 76.521,51.468 74.947,51.468 74.947,53.866 81.085,53.866" style="fill:#008335" />
    </g>
    <g transform="translate(-4.5800651e-8,-38.174677)">
        <path d="M 4.592,67.092 4.027,65.255 H 1.766 L 1.201,67.092 H 0 l 2.291,-6.994 h 1.342 l 2.23,6.994 H 4.592 z M 2.937,61.259 h -0.01 c 0,0 -0.717,2.563 -0.879,3.028 H 3.765 C 3.694,64.135 2.987,61.531 2.937,61.259 z" style="fill:#1d1d1b" />
        <path d="m 9.921,67.214 c -1.837,0 -2.412,-0.949 -2.412,-2.069 v -5.037 h 1.17 v 4.693 c 0,1.07 0.383,1.424 1.241,1.424 0.848,0 1.261,-0.496 1.261,-1.424 v -4.693 h 1.161 v 5.026 c 10e-4,1.282 -0.887,2.08 -2.421,2.08 z" style="fill:#1d1d1b" />
        <path d="m 18.945,61.076 h -1.757 v 6.016 H 16.027 V 61.076 H 14.26 v -0.969 h 4.835 l -0.15,0.969 z" style="fill:#1d1d1b" />
        <path d="m 23.273,67.203 c -1.988,0 -2.966,-1.534 -2.966,-3.604 0,-2.3 1.17,-3.592 2.917,-3.592 1.968,0 2.917,1.564 2.917,3.603 0,2.18 -1.05,3.593 -2.868,3.593 z m -0.06,-6.298 c -1.17,0 -1.614,0.949 -1.614,2.624 0,1.798 0.454,2.796 1.645,2.796 1.04,0 1.574,-0.768 1.574,-2.645 0,-1.704 -0.353,-2.775 -1.605,-2.775 z" style="fill:#1d1d1b" />
        <path d="m 34.145,67.092 -0.323,-4.329 c -0.03,-0.444 -0.051,-0.999 -0.051,-1.212 -0.05,0.231 -0.141,0.677 -0.272,1.121 l -1.271,4.42 h -0.99 l -1.16,-4.229 c -0.131,-0.465 -0.262,-1.09 -0.303,-1.323 0,0.233 -0.04,0.899 -0.071,1.334 L 29.4,67.092 h -1.14 l 0.636,-6.984 h 1.544 l 1.07,3.957 c 0.162,0.585 0.222,0.979 0.262,1.19 0.03,-0.212 0.121,-0.687 0.252,-1.171 l 1.1,-3.977 h 1.544 l 0.616,6.984 h -1.139 z" style="fill:#1d1d1b" />
        <path d="m 40.372,67.203 c -1.989,0 -2.967,-1.534 -2.967,-3.604 0,-2.3 1.17,-3.592 2.917,-3.592 1.968,0 2.917,1.564 2.917,3.603 -10e-4,2.18 -1.051,3.593 -2.867,3.593 z m -0.061,-6.298 c -1.171,0 -1.615,0.949 -1.615,2.624 0,1.798 0.454,2.796 1.646,2.796 1.039,0 1.575,-0.768 1.575,-2.645 0,-1.704 -0.354,-2.775 -1.606,-2.775 z" style="fill:#1d1d1b" />
        <path d="m 49.284,61.076 h -1.756 v 6.016 h -1.16 v -6.016 h -1.766 v -0.969 h 4.834 l -0.152,0.969 z" style="fill:#1d1d1b" />
        <path d="m 51.05,67.092 v -6.984 h 1.191 v 6.984 H 51.05 z" style="fill:#1d1d1b" />
        <path d="m 57.388,67.123 h -1.081 l -2.351,-7.016 h 1.271 l 1.262,3.957 c 0.283,0.888 0.364,1.403 0.364,1.403 h 0.02 c 0,0 0.081,-0.425 0.424,-1.464 l 1.283,-3.896 h 1.21 l -2.402,7.016 z" style="fill:#1d1d1b" />
        <path d="m 61.506,67.092 v -6.984 h 3.875 l -0.151,0.95 h -2.563 v 1.907 h 2.15 v 0.958 h -2.13 v 2.181 h 2.796 v 0.988 h -3.977 z" style="fill:#1d1d1b" />
        <path d="M 74.395,67.092 73.83,65.255 h -2.262 l -0.563,1.837 h -1.202 l 2.292,-6.994 h 1.342 l 2.23,6.994 H 74.395 z M 72.74,61.259 h -0.01 c 0,0 -0.717,2.563 -0.88,3.028 h 1.717 c -0.07,-0.152 -0.776,-2.756 -0.827,-3.028 z" style="fill:#1d1d1b" />
        <path d="m 81.015,61.058 h -2.391 v 1.897 h 1.947 v 0.938 h -1.947 v 3.198 h -1.161 v -6.984 h 3.694 l -0.142,0.951 z" style="fill:#1d1d1b" />
        <path d="m 86.648,61.076 h -1.757 v 6.016 h -1.162 v -6.016 h -1.766 v -0.969 h 4.835 l -0.15,0.969 z" style="fill:#1d1d1b" />
        <path d="m 88.414,67.092 v -6.984 h 3.875 l -0.152,0.95 h -2.563 v 1.907 h 2.148 v 0.958 h -2.127 v 2.181 h 2.794 v 0.988 h -3.975 z" style="fill:#1d1d1b" />
        <path d="M 97.851,67.092 97.246,66.013 C 96.762,65.155 96.438,64.67 96.056,64.287 95.923,64.155 95.822,64.084 95.6,64.074 v 3.018 h -1.14 v -6.984 h 2.131 c 1.563,0 2.27,0.908 2.27,1.998 0,1 -0.646,1.918 -1.736,1.918 0.253,0.132 0.717,0.808 1.081,1.394 l 1.028,1.675 h -1.383 z m -1.616,-6.045 h -0.637 v 2.21 h 0.597 c 0.604,0 0.928,-0.08 1.14,-0.292 0.192,-0.192 0.313,-0.484 0.313,-0.85 -10e-4,-0.706 -0.383,-1.068 -1.413,-1.068 z" style="fill:#1d1d1b" />
        <path d="m 106.934,67.092 -0.322,-4.329 c -0.031,-0.444 -0.051,-0.999 -0.051,-1.212 -0.05,0.231 -0.141,0.677 -0.272,1.121 l -1.271,4.42 h -0.99 l -1.159,-4.229 c -0.132,-0.465 -0.263,-1.09 -0.304,-1.323 0,0.233 -0.04,0.899 -0.071,1.334 l -0.302,4.218 h -1.142 l 0.637,-6.984 h 1.545 l 1.07,3.957 c 0.16,0.585 0.221,0.979 0.262,1.19 0.03,-0.212 0.12,-0.687 0.251,-1.171 l 1.103,-3.977 h 1.543 l 0.615,6.984 h -1.142 z" style="fill:#1d1d1b" />
        <path d="m 114.262,67.092 -0.565,-1.837 h -2.262 l -0.563,1.837 h -1.203 l 2.292,-6.994 h 1.343 l 2.231,6.994 h -1.273 z m -1.657,-5.833 h -0.009 c 0,0 -0.717,2.563 -0.879,3.028 h 1.715 c -0.07,-0.152 -0.775,-2.756 -0.827,-3.028 z" style="fill:#1d1d1b" />
        <path d="m 120.721,67.092 -0.605,-1.079 c -0.484,-0.858 -0.808,-1.343 -1.19,-1.726 -0.132,-0.132 -0.233,-0.203 -0.454,-0.213 v 3.018 h -1.141 v -6.984 h 2.13 c 1.563,0 2.271,0.908 2.271,1.998 0,1 -0.646,1.918 -1.736,1.918 0.252,0.132 0.716,0.808 1.079,1.394 l 1.03,1.675 h -1.384 z m -1.616,-6.045 h -0.635 v 2.21 h 0.596 c 0.604,0 0.928,-0.08 1.139,-0.292 0.193,-0.192 0.313,-0.484 0.313,-0.85 0.001,-0.706 -0.383,-1.068 -1.413,-1.068 z" style="fill:#1d1d1b" />
        <path d="m 124.123,67.092 v -6.984 h 1.18 v 6.984 h -1.18 z m 3.542,0 -2.351,-3.725 2.271,-3.26 h 1.434 l -2.425,3.24 2.585,3.744 h -1.514 z" style="fill:#1d1d1b" />
        <path d="m 130.895,67.092 v -6.984 h 3.875 l -0.151,0.95 h -2.563 v 1.907 h 2.15 v 0.958 h -2.13 v 2.181 h 2.796 v 0.988 h -3.977 z" style="fill:#1d1d1b" />
        <path d="m 140.968,61.076 h -1.757 v 6.016 h -1.161 v -6.016 h -1.766 v -0.969 h 4.834 l -0.15,0.969 z" style="fill:#1d1d1b" />
    </g>
</svg>